<svg version="1.1" xmlns="http://www.w3.org/2000/svg" xmlns:xlink="http://www.w3.org/1999/xlink" width="54.27461" height="54.37013" viewBox="0,0,54.27461,54.37013"><g transform="translate(-212.86269,-152.81483)"><g data-paper-data="{&quot;isPaintingLayer&quot;:true}" fill-rule="nonzero" stroke-linejoin="miter" stroke-miterlimit="10" stroke-dasharray="" stroke-dashoffset="0" style="mix-blend-mode: normal"><path d="M212.8627,207.13731v-54.27461h54.27461v54.27461z" fill="#262626" stroke="none" stroke-width="none" stroke-linecap="butt"/><path d="M230.37421,153.06483c0,0 6.36925,2.4017 4.62953,5.59359c-0.98401,1.80537 -12.90393,-0.37028 -10.48745,3.50532c2.23469,3.58404 13.66171,26.71716 1.93107,22.59875c-11.51798,-4.04375 -13.30552,-0.08125 -13.30552,-0.08125v-31.61641z" fill="#4fcbfa" stroke="#4fcbfa" stroke-width="0.5" stroke-linecap="round"/><path d="M266.8856,169.6913c0,0 -10.0252,-4.69294 -6.96287,9.32886c1.11358,5.09884 -16.82459,-8.37824 -19.5764,-5.90775c-4.36871,3.92211 6.14991,16.0561 0.62541,16.98853c-10.90841,1.84112 3.30165,16.83401 3.30165,16.83401h22.61222z" fill="#fa5050" stroke="#fa5050" stroke-width="0.5" stroke-linecap="round"/><path d="M246.56846,157.10644c2.40775,-1.16063 5.18423,3.38939 7.23752,1.27876c4.78376,-4.91735 4.52844,-0.33536 5.14609,0.91664c0.73043,1.48059 6.67299,3.25725 -1.04486,7.39667c-2.59766,1.39324 0.95122,4.08407 -0.71992,5.41859c-1.87104,1.49415 -6.46725,0.15987 -8.14761,-1.87158c-1.32632,-1.60344 -1.73223,-1.47132 -0.55422,-3.54701c0.47829,-0.84277 -4.57183,-1.60089 -5.09723,-3.27433c-2.45152,-7.80839 1.67,-5.58975 3.18023,-6.31774z" fill="#fa5050" stroke="#fa5050" stroke-width="0.5" stroke-linecap="round"/><path d="M221.31421,192.19268c0.73785,-2.78371 1.06538,-5.16195 4.54461,-4.98799c3.47923,0.17396 2.18699,0.21963 2.10604,5.98559c-0.06994,4.98134 2.55491,1.27539 3.54701,2.88195c4.30225,6.96683 -0.35025,8.57369 -2.99279,3.65786c-0.24038,-0.44718 0.22781,2.77193 -2.6258,0.32635c-4.60287,-3.94473 -2.23057,0.37016 -5.1333,-1.98901c-6.47256,-5.26052 -0.18363,-3.09103 0.55422,-5.87474z" fill="#4fcbfa" stroke="#4fcbfa" stroke-width="0.5" stroke-linecap="round"/></g></g></svg>